PathFileType	4	(X/Y/Z)	36_1_rein_24_p0_0-427_filt_butterworth.trc
DataRate	CameraRate	NumFrames	NumMarkers	Units	OrigDataRate	OrigDataStartFrame	OrigNumFrames
59.0	59.0	5	27	m	59.0	0	427
Frame#	Time	RHip			RKnee			RAnkle			RBigToe			RSmallToe			RHeel			LHip			LKnee			LAnkle			LBigToe			LSmallToe			LHeel			Neck			Head			Nose			RShoulder			RElbow			RWrist			RThumb			RIndex			RPinky			LShoulder			LElbow			LWrist			LThumb			LIndex			LPinky			
		X1	Y1	Z1	X2	Y2	Z2	X3	Y3	Z3	X4	Y4	Z4	X5	Y5	Z5	X6	Y6	Z6	X7	Y7	Z7	X8	Y8	Z8	X9	Y9	Z9	X10	Y10	Z10	X11	Y11	Z11	X12	Y12	Z12	X13	Y13	Z13	X14	Y14	Z14	X15	Y15	Z15	X16	Y16	Z16	X17	Y17	Z17	X18	Y18	Z18	X19	Y19	Z19	X20	Y20	Z20	X21	Y21	Z21	X22	Y22	Z22	X23	Y23	Z23	X24	Y24	Z24	X25	Y25	Z25	X26	Y26	Z26	X27	Y27	Z27	
0	0.0	0.2888024562295843	0.5093934037497897	-0.1058210127433949	0.3507521867651845	0.6419346197328388	0.3379620089284379	0.38819776232495307	0.7242348931382073	0.7193388759362354	0.3497873563524662	0.5012147620070154	0.7350628999655848	0.41667568095529695	0.5173291521726935	0.7277216798909487	0.35960564137094336	0.8500101858829676	0.7973942737225642	0.08603434269683799	0.564856813131131	-0.0775229187617813	0.10065982790240005	0.6416265140366	0.3320567461257887	0.12859998045324028	0.7234374852564849	0.7052720447449495	0.1652017139669697	0.506522886037535	0.750210828173646	0.11027895871601809	0.5773291426469219	0.789508031253241	0.12837510955593942	0.7764854148544726	0.768739823695672	0.16423227265407653	0.47801916040536185	-0.578759021543115	0.1561029032583605	0.434408713341603	-0.820518648484599	0.16283509803490379	0.35941914044588025	-0.6831445162072742	0.3084890729060622	0.4769293985584102	-0.4998157964431773	0.3787895540656376	0.47122583703391174	-0.2522317879019208	0.30551446718706626	0.392734440717573	-0.035585519147522796	0.2054768371969315	0.35180273844887516	0.03197220528309832	0.21013303877927758	0.36909831578958857	0.07826295792596868	0.2682578351410534	0.3467529448405632	0.07463437693227203	0.013282746461599047	0.4700535428656876	-0.4757189166732317	0.01573052902406763	0.4837930059532014	-0.21658507966700236	0.11424758281212599	0.39361858208730854	-0.04107747840461566	0.20785053617536392	0.3762801158132449	0.015252599368473719	0.21151349667595937	0.3794357047226432	0.04409057571278316	0.19044688460762815	0.38376425698843664	0.06398194090530189
1	0.0169491525423728	0.2912067329353012	0.5095906856206628	-0.10372600136985546	0.351938203941094	0.6445983385011542	0.3401795961402586	0.3887389420574603	0.7238899688098727	0.7163409536889072	0.3578147798907622	0.5267375655211604	0.745547736708361	0.42003660044704794	0.5290011232257156	0.7321638896403055	0.3607958635318984	0.8517386701247522	0.7934347085516805	0.08873289853123187	0.5540042247375937	-0.08303775672860507	0.10154152638281004	0.6432448449920581	0.3368633609894077	0.1262032822471986	0.7147905952792072	0.7042741037212371	0.16300300861320327	0.5037610756477049	0.7449054999906133	0.11083332850158868	0.5693509320274719	0.775384737437987	0.12747126091105443	0.7787693167530221	0.7656944439641987	0.1642880825728867	0.4779877787365893	-0.5787454508347003	0.15864379568573458	0.4270517482646225	-0.8195913361219933	0.160779892810564	0.35850618833252645	-0.6807997734753212	0.30623356290383874	0.4849415253413626	-0.4991011982538401	0.37782523982746213	0.47509921267995475	-0.2515911928507846	0.3077070259002132	0.3969891381200001	-0.04013776935270711	0.20758286297391682	0.34299503067307197	0.03213246878872315	0.21498499331260143	0.3615458687522246	0.07571184155809332	0.2683626185830711	0.34681723488318233	0.07457661037188756	0.0132974931036806	0.4702951975876319	-0.47587966762433287	0.01563372364886524	0.4836059334659712	-0.2161448892006118	0.1190766095414085	0.39245870143599	-0.04206205243735195	0.21316664080782272	0.36674938983230854	0.015077315943604334	0.21446378268083183	0.37716212147696865	0.04534758404711132	0.19074694477545634	0.38420493036862247	0.06339177679369654
2	0.0338983050847457	0.291992900471529	0.5084350123561534	-0.1026798885926669	0.3520775449824955	0.6441452153579226	0.3413921877307633	0.3891872586612786	0.723455842975531	0.7152189025048602	0.3625531055548627	0.5417472759449458	0.7517541328581988	0.4220271574283019	0.536495803738795	0.7359981494957168	0.3615297387274559	0.8526255509424755	0.7910437280562818	0.08990520917815865	0.5452173330578279	-0.08657907673873519	0.1029028542847645	0.6427961180451234	0.33957970650699415	0.1251712592260455	0.7098642445515818	0.704022942371768	0.1608490317963602	0.5030179114130766	0.7417822467107297	0.11108123419079434	0.5648668724718726	0.7661765754232871	0.12704493248998433	0.7801105479267261	0.7627484004013193	0.16432151712672616	0.4779683339694225	-0.578737829957592	0.16004339499114242	0.42256455796278825	-0.8194764483841932	0.1595182614857431	0.35794512303349074	-0.6793672482478389	0.30489297493984163	0.4896914014294753	-0.4986729542469022	0.3774194999331555	0.47673542429801374	-0.25129992214796265	0.3101759416120645	0.4014939333802061	-0.041248060677077925	0.2090703773503173	0.34377379495199745	0.033514744540970656	0.21857907712483493	0.3582506564465931	0.07531351218751425	0.26847611563332896	0.3468652194377016	0.07450994933880495	0.013304622048093323	0.47045382548222314	-0.4759762825426902	0.015464005280612246	0.4833106613044971	-0.2171478121924425	0.12024401735191692	0.3920106963079583	-0.04296196583836518	0.2149082664791082	0.36426976607699085	0.015242478104906858	0.21512281244120487	0.37724339633062753	0.04412821528060306	0.1911209161426611	0.38636523057996536	0.06223954982919295
3	0.0508474576271186	0.29126343947150496	0.5052526137707557	-0.1028303763546699	0.351550853818836	0.6418462455833499	0.3416396003271288	0.3894933200248166	0.7229777780862501	0.7159241804227194	0.36376491910038167	0.5455146096992189	0.753409926741343	0.42241744357553834	0.5388514124089576	0.7386900976462547	0.3617589944695811	0.852530520811194	0.7903429532329159	0.08961529604516898	0.5394487297571848	-0.0876905865191777	0.10500853115948952	0.6394644695765216	0.3392684476337113	0.1253916855982855	0.708940417453168	0.7044736136753471	0.1597060113674159	0.502290965454823	0.7406471833393452	0.11103089120200138	0.563854478614517	0.7624816084386841	0.12704441223275353	0.7804898261001164	0.7606428185499412	0.16433090805893902	0.4779623320955601	-0.5787406050664624	0.15993385690918221	0.4212941282652287	-0.8199516143158401	0.15908354458063362	0.35778316607636224	-0.678914875383858	0.3045321885869512	0.49096859245757324	-0.49854706809313226	0.3777426007415069	0.4754327657808035	-0.2514748889358223	0.3122566287717963	0.40497193922864094	-0.03905471651324274	0.20969853859524618	0.35237798416990995	0.03566283476819698	0.22050876664310445	0.359387433745433	0.07758954802108214	0.2685895101899615	0.3468913691921569	0.07446136302904545	0.013306213799671458	0.47054289187463166	-0.47600970747263277	0.015245445019383456	0.4829561170148472	-0.2191396432615278	0.1184423601670872	0.3933089743060615	-0.04348134146656242	0.2137921481127324	0.36798138845266176	0.014981186687075945	0.21377155992432278	0.37907246809744266	0.04075234902253763	0.19149389778651893	0.3898056838295728	0.060780248579271084
4	0.0677966101694915	0.29025078128721804	0.5009841084612934	-0.10357045685613114	0.351221707623221	0.6403281853431599	0.3415394896313126	0.3896376095376959	0.7226171880682093	0.7170706126952584	0.36330588539360437	0.5439866753067093	0.7529220360394753	0.4217135602427407	0.5379306724369978	0.7398727665653329	0.3617032266471208	0.8519426245448356	0.7904799290821769	0.08893077265596566	0.5366754585012874	-0.08741218534358877	0.10760070574186029	0.6348231283403869	0.3370088849068808	0.12582325529302252	0.7101503983765391	0.7048621758429361	0.16008540221913378	0.49980471218290023	0.7402539431096743	0.11084659713178205	0.5642240599518753	0.7618414109910888	0.12712402964266759	0.7804632507439897	0.7597484469922114	0.16432736586805102	0.47795962685792837	-0.5787528045161336	0.1585223173101509	0.4217826005188094	-0.820302462487537	0.1589924454298629	0.3578368618590163	-0.6790174451434816	0.3046367691385736	0.49060777270977735	-0.4985645056575936	0.37834569297576903	0.47291605379484253	-0.2518832823723652	0.31327607219666836	0.40645412928888824	-0.03651176857252818	0.20980614375514664	0.36054689490899655	0.03744959573736985	0.22130314485007319	0.36339307961389355	0.08130642879351557	0.26866975789565306	0.3468827045226399	0.0744485872565213	0.013307595566479376	0.4706118812690164	-0.4760201550641029	0.015076339668552034	0.4826858787331521	-0.22071293060472402	0.11663433712276727	0.3964643742066981	-0.04351657000753137	0.21254295065165227	0.373199670643879	0.014014023516263525	0.21216665237709248	0.3814838587943745	0.03759208325097172	0.19172329238323993	0.39253496213097905	0.05971482904785043
